<?xml version="1.0" encoding="UTF-8"?>
<svg id="Camada_2" data-name="Camada 2" xmlns="http://www.w3.org/2000/svg" viewBox="0 0 299.89 90.87">
  <defs>
    <style>
      .cls-1 {
        fill: #fff;
      }
    </style>
  </defs>
  <g id="Layer_1" data-name="Layer 1">
    <g>
      <g>
        <path class="cls-1" d="m36.69,40.69s.03.05.04.07c2.24,5.74,6.14,15.5,7.66,17.69,2.52,3.64,5.61,5.4,9.45,5.4s6.94-1.77,9.45-5.41c.59-.86,1.4-2.03,10.58-26.95,2.13-5.78,4.21-11.5,5.82-15.92-.85-.97-1.73-1.91-2.66-2.8-1.66,4.59-4.01,11.04-6.4,17.53-9.03,24.51-9.87,25.72-10.18,26.18-1.87,2.71-3.91,3.91-6.61,3.91s-4.74-1.21-6.61-3.91c-1.48-2.14-6.67-15.4-7.34-17.13-1.64-3.32-3.43-3.58-3.94-3.58-1.44,0-3.07,1.44-3.94,3.55-.47,1.3-8.93,24.5-15.11,41.46.93.75,1.9,1.47,2.89,2.15,11.5-31.55,14.83-40.71,15.39-42.23,0,0,0-.01,0-.02.32-.61,1.19-.61,1.5,0"/>
        <path class="cls-1" d="m16.95,66.7c11.23-30.62,12.07-31.83,12.39-32.29,1.87-2.71,3.91-3.92,6.61-3.92s4.74,1.21,6.61,3.92l.33.48s.04.05.05.08c2.04,3.57,6.57,15.55,6.96,16.57,1.64,3.32,3.43,3.57,3.94,3.57,1.44,0,3.07-1.39,3.94-3.55.53-1.45,11.12-30.44,15.39-42.12-.94-.73-1.92-1.42-2.92-2.08-3.91,10.71-14.55,39.84-15.64,42.82,0,0,0,.01,0,.02-.31.61-1.19.61-1.5,0,0-.02-.02-.04-.03-.05-.97-2.56-5.06-13.29-7.13-16.9-.06-.11-.14-.23-.21-.34l-.33-.48c-2.52-3.64-5.61-5.4-9.45-5.4s-6.94,1.77-9.45,5.4c-.59.86-1.4,2.03-12.79,33.06-1.11,3.01-2.21,6.03-3.26,8.92.83,1,1.71,1.97,2.62,2.9,1.24-3.4,2.56-7.01,3.88-10.63"/>
        <path class="cls-1" d="m53.85,56.28c-2.3,0-4.06-2.35-5-4.27,0,0-4.84-12.85-6.9-16.46,0,0-.23-.33-.33-.48-1.66-2.4-3.35-3.42-5.67-3.42s-4.01,1.02-5.67,3.42c-1.07,1.55-9.86,25.44-16.32,43.15.64.62,1.31,1.22,1.98,1.8,6.34-17.41,14.99-41.12,14.99-41.13.87-1.77,2.45-4.25,5-4.25,2.3,0,4.06,2.35,5,4.27,0,0,5.78,14.83,7.24,16.94,1.66,2.4,3.35,3.42,5.67,3.42s4.01-1.02,5.67-3.42c1.33-1.92,11.95-31.02,16.62-43.91-.65-.59-1.31-1.17-1.99-1.72-4.46,12.21-15.28,41.81-15.28,41.82-.87,1.77-2.45,4.25-5,4.25"/>
        <path class="cls-1" d="m6.59,45.44C6.59,23.98,23.98,6.59,45.44,6.59c7.74,0,14.96,2.27,21.02,6.17l2.28-6.34C61.92,2.34,53.95,0,45.44,0,20.34,0,0,20.34,0,45.44c0,10.29,3.42,19.78,9.19,27.4l2.76-7.71c-3.4-5.77-5.35-12.5-5.35-19.69"/>
        <path class="cls-1" d="m80.95,17.09l-2.71,7.53c3.83,6.02,6.04,13.16,6.04,20.82,0,21.45-17.39,38.85-38.85,38.85-8.11,0-15.63-2.48-21.86-6.73l-2.28,6.38c6.99,4.4,15.27,6.94,24.14,6.94,25.09,0,45.44-20.34,45.44-45.44,0-10.72-3.71-20.58-9.93-28.35"/>
      </g>
      <g>
        <path class="cls-1" d="m104.27,39c0-1.23.23-2.34.69-3.31.45-.97,1.08-1.8,1.89-2.48.8-.68,1.75-1.2,2.85-1.55,1.1-.36,2.3-.54,3.61-.54s2.51.18,3.63.54c1.11.36,2.06.88,2.87,1.55.8.68,1.42,1.51,1.87,2.48.44.98.67,2.08.67,3.31v11.21h-4.22v-10.14c0-1.68-.41-2.95-1.22-3.83-.82-.87-2.01-1.31-3.59-1.31s-2.81.44-3.61,1.31c-.8.88-1.2,2.15-1.2,3.83v10.14h-4.22v-11.21Z"/>
        <path class="cls-1" d="m134.57,47c.84,0,1.62-.15,2.33-.46.71-.31,1.33-.74,1.83-1.3.51-.55.9-1.2,1.18-1.92.28-.73.43-1.52.43-2.39s-.14-1.67-.43-2.43c-.28-.75-.68-1.4-1.18-1.94-.51-.54-1.12-.97-1.83-1.28-.72-.31-1.49-.46-2.33-.46s-1.65.15-2.35.46c-.7.31-1.31.74-1.81,1.28-.51.54-.9,1.19-1.19,1.94-.28.75-.43,1.56-.43,2.43s.14,1.66.43,2.39c.28.73.68,1.37,1.19,1.92.5.56,1.11.99,1.81,1.3.7.31,1.49.46,2.35.46m0-15.87c1.43,0,2.77.25,4.01.74,1.24.49,2.32,1.18,3.24,2.05.91.88,1.63,1.91,2.15,3.11.52,1.2.78,2.5.78,3.9s-.26,2.67-.78,3.87c-.52,1.2-1.23,2.23-2.15,3.11s-1.99,1.57-3.24,2.07c-1.25.51-2.59.76-4.01.76s-2.77-.25-4.01-.76c-1.24-.5-2.32-1.2-3.24-2.07-.91-.88-1.63-1.91-2.15-3.11-.52-1.2-.78-2.49-.78-3.87s.26-2.71.78-3.9c.52-1.2,1.23-2.23,2.15-3.11.91-.87,1.99-1.56,3.24-2.05,1.25-.49,2.59-.74,4.01-.74"/>
        <path class="cls-1" d="m146.82,38.26c0-2.27.7-4.03,2.09-5.27,1.39-1.24,3.32-1.87,5.79-1.87,1.55,0,2.82.22,3.79.65.97.43,1.46,1.09,1.46,1.98,0,.42-.12.83-.35,1.22-.23.4-.42.64-.57.74-.42-.2-.94-.38-1.55-.56-.62-.17-1.32-.26-2.11-.26-2.89,0-4.33,1.53-4.33,4.59v10.73h-4.22v-11.95Z"/>
        <path class="cls-1" d="m163.43,28.35c0-.69.2-1.19.59-1.5.4-.31.94-.46,1.63-.46.44,0,.86.06,1.24.17.38.11.63.19.76.24v4.85h5.37c.81,0,1.39.17,1.72.5.34.33.5.82.5,1.46,0,.42-.06.81-.18,1.16-.12.36-.22.61-.3.76h-7.1v8.25c0,.64.09,1.17.26,1.57.17.41.41.73.72.98.31.25.67.42,1.07.52.41.1.83.15,1.28.15.72,0,1.38-.11,2-.33.62-.22,1.06-.43,1.33-.63l1.7,2.81c-.2.15-.48.33-.83.56-.36.22-.79.43-1.31.63-.52.2-1.1.36-1.74.5-.64.13-1.34.2-2.11.2-2.17,0-3.81-.56-4.92-1.68-1.11-1.12-1.67-2.6-1.67-4.42v-16.28Z"/>
        <path class="cls-1" d="m180.63,40.08c.57.03,1.11.04,1.63.04h1.55c1.36,0,2.45-.09,3.29-.26.84-.17,1.49-.39,1.96-.67.47-.27.78-.58.92-.92.15-.35.22-.7.22-1.07,0-.94-.38-1.64-1.13-2.11-.75-.47-1.68-.7-2.79-.7-.91,0-1.71.16-2.4.48-.69.32-1.27.74-1.74,1.28-.47.53-.83,1.14-1.09,1.83-.26.69-.4,1.39-.42,2.11m12.99,8.77c-.2.12-.51.3-.93.52s-.94.43-1.57.63c-.63.2-1.36.37-2.18.52-.83.15-1.73.22-2.72.22-1.38,0-2.67-.21-3.87-.63-1.2-.42-2.24-1.04-3.14-1.87-.9-.83-1.61-1.84-2.13-3.03-.52-1.2-.78-2.57-.78-4.13s.25-2.83.76-4.05c.5-1.22,1.21-2.27,2.11-3.15.9-.87,1.96-1.55,3.18-2.03,1.22-.48,2.56-.72,4.01-.72,1.28,0,2.42.17,3.4.5.99.33,1.82.78,2.5,1.33.68.56,1.19,1.2,1.53,1.94.35.74.52,1.53.52,2.37s-.16,1.65-.48,2.35c-.32.7-.89,1.31-1.7,1.81-.81.5-1.91.9-3.29,1.18-1.38.28-3.13.43-5.25.43-.49,0-.96,0-1.39-.02-.43-.01-.89-.03-1.39-.06.2,1.26.81,2.28,1.83,3.05,1.02.78,2.48,1.16,4.38,1.16.64,0,1.23-.05,1.78-.15.54-.1,1.03-.22,1.46-.37.43-.15.8-.3,1.11-.44.31-.15.54-.26.68-.34l1.55,2.96Z"/>
        <polygon class="cls-1" points="200.82 31.22 210.75 31.22 210.52 32.86 202.43 32.86 201.37 39.51 208.38 39.51 208.11 41.15 201.11 41.15 199.92 48.55 208.35 48.55 208.11 50.21 197.83 50.21 200.82 31.22"/>
        <polygon class="cls-1" points="228.29 31.19 225.28 50.21 223.51 50.21 216.48 34.26 213.94 50.21 212.2 50.21 215.21 31.19 217.11 31.19 224.04 47.15 226.55 31.19 228.29 31.19"/>
        <polygon class="cls-1" points="234.52 31.22 244.45 31.22 244.22 32.86 236.13 32.86 235.08 39.51 242.08 39.51 241.81 41.15 234.81 41.15 233.62 48.55 242.05 48.55 241.81 50.21 231.54 50.21 234.52 31.22"/>
        <path class="cls-1" d="m253.04,40.17c2.64,0,4.86-1.45,4.86-4.31,0-2.03-1.3-3.07-3.75-3.07h-3.7l-1.16,7.37h3.75Zm3.78,6.47c.29,1.48.87,2.27,1.98,2.27.5,0,1.06-.13,1.48-.26l-.24,1.58c-.58.19-1.11.24-1.74.24-1.74,0-2.69-.95-3.14-2.96l-1.32-5.71h-4.81l-1.32,8.4h-1.8l2.99-19h5.44c2.85,0,5.5,1.08,5.5,4.6,0,2.46-1.51,4.39-4.12,5.5l1.11,5.34Z"/>
        <path class="cls-1" d="m270.18,41.1h6.21l-1.27,8.24c-1.51.66-3.3,1.24-5.6,1.24-4.31,0-6.31-2.69-6.31-7.13,0-5.18,2.06-12.63,8.9-12.63,3.59,0,4.94,1.69,5.05,4.62l-1.74.42c-.35-2.11-.9-3.43-3.62-3.43-4.83,0-6.63,6.79-6.63,10.99,0,3.17,1.24,5.58,4.68,5.58,1.37,0,2.77-.4,3.67-.85l.87-5.52h-4.44l.24-1.53Z"/>
        <polygon class="cls-1" points="284.6 31.22 281.61 50.21 279.79 50.21 282.78 31.22 284.6 31.22"/>
        <path class="cls-1" d="m290.46,42.87h6.5l-1.74-10.41-4.76,10.41Zm-5.26,7.35l8.85-19h2.72l3.12,19h-1.77l-.92-5.68h-7.45l-2.69,5.68h-1.85Z"/>
        <path class="cls-1" d="m103.93,56.85h.49v5.25c0,1.51.99,2.44,2.5,2.44s2.51-.93,2.51-2.46v-5.22h.49v5.27c0,1.76-1.23,2.89-2.99,2.89s-3-1.12-3-2.89v-5.27Z"/>
        <path class="cls-1" d="m112.29,63.63s.81.89,2.14.89c1,0,1.79-.62,1.79-1.58,0-2.28-4.1-1.65-4.1-4.16,0-1.07.95-2.07,2.41-2.07,1.31,0,2.04.74,2.04.74l-.27.42s-.69-.69-1.75-.69c-1.19,0-1.9.8-1.9,1.58,0,2.12,4.1,1.47,4.1,4.15,0,1.16-.89,2.08-2.33,2.08-1.58,0-2.45-1-2.45-1l.33-.38Z"/>
        <rect class="cls-1" x="118.89" y="56.85" width=".49" height="8.02"/>
        <path class="cls-1" d="m122.13,56.85h.46l4.57,6.29c.26.37.66,1.01.66,1.01h.02s-.06-.61-.06-1.01v-6.29h.49v8.02h-.46l-4.57-6.29c-.26-.37-.65-1.01-.65-1.01h-.02s.06.61.06,1.01v6.29h-.49v-8.02Z"/>
        <path class="cls-1" d="m133.23,57.42s-.17.62-.3.96l-1.23,3.25h3.06l-1.22-3.25c-.12-.34-.3-.96-.3-.96h-.02Zm1.71,4.67h-3.4l-1.03,2.77h-.53l3-8.02h.53l3,8.02h-.53l-1.04-2.77Z"/>
        <polygon class="cls-1" points="141.66 56.85 142.15 56.85 142.15 60.62 147.24 60.62 147.24 56.85 147.73 56.85 147.73 64.87 147.24 64.87 147.24 61.07 142.15 61.07 142.15 64.87 141.66 64.87 141.66 56.85"/>
        <rect class="cls-1" x="150.48" y="56.85" width=".49" height="8.02"/>
        <path class="cls-1" d="m156.15,64.41c2.13,0,3.56-1.25,3.56-3.55s-1.43-3.55-3.56-3.55h-1.95v7.1h1.95Zm-2.44-7.56h2.52c2.38,0,4,1.47,4,4.01s-1.62,4.01-4,4.01h-2.52v-8.02Z"/>
        <path class="cls-1" d="m165.14,60.86c1.05,0,1.72-.76,1.72-1.85,0-.71-.36-1.28-.94-1.55-.23-.1-.48-.16-1.12-.16h-1.83v3.55h2.18Zm-2.67-4.01h2.35c.75,0,1.12.08,1.44.24.66.33,1.11,1.01,1.11,1.92,0,1.15-.67,2.01-1.6,2.21v.02s.08.09.19.29l1.8,3.33h-.58l-1.9-3.55h-2.3v3.55h-.49v-8.02Z"/>
        <polygon class="cls-1" points="169.85 56.85 174.24 56.85 174.24 57.3 170.35 57.3 170.35 60.59 173.54 60.59 173.54 61.05 170.35 61.05 170.35 64.41 174.46 64.41 174.46 64.87 169.85 64.87 169.85 56.85"/>
        <polygon class="cls-1" points="176.66 56.85 177.16 56.85 177.16 64.41 180.98 64.41 180.98 64.87 176.66 64.87 176.66 56.85"/>
        <path class="cls-1" d="m185.61,55h.64l-.91,1.27h-.5l.77-1.27Zm-2.84,1.84h4.39v.46h-3.9v3.29h3.2v.46h-3.2v3.35h4.11v.46h-4.61v-8.02Z"/>
        <polygon class="cls-1" points="191.42 57.3 188.43 57.3 188.43 56.85 194.9 56.85 194.9 57.3 191.91 57.3 191.91 64.87 191.42 64.87 191.42 57.3"/>
        <path class="cls-1" d="m199.17,60.86c1.05,0,1.72-.76,1.72-1.85,0-.71-.35-1.28-.94-1.55-.23-.1-.48-.16-1.12-.16h-1.83v3.55h2.18Zm-2.67-4.01h2.35c.75,0,1.12.08,1.44.24.66.33,1.11,1.01,1.11,1.92,0,1.15-.67,2.01-1.6,2.21v.02s.08.09.18.29l1.8,3.33h-.58l-1.9-3.55h-2.3v3.55h-.49v-8.02Z"/>
        <rect class="cls-1" x="203.88" y="56.85" width=".49" height="8.02"/>
        <path class="cls-1" d="m210.55,56.71c1.9,0,2.86,1.01,2.86,1.01l-.3.37s-.95-.91-2.55-.91c-1.97,0-3.47,1.55-3.47,3.62s1.49,3.73,3.51,3.73c1.72,0,2.71-1.09,2.71-1.09l.31.34s-1.08,1.21-3.02,1.21c-2.34,0-4.02-1.88-4.02-4.2s1.72-4.09,3.98-4.09"/>
        <path class="cls-1" d="m218.02,57.42s-.17.62-.3.96l-1.23,3.25h3.06l-1.22-3.25c-.12-.34-.3-.96-.3-.96h-.02Zm1.71,4.67h-3.4l-1.03,2.77h-.53l3-8.02h.53l3,8.02h-.53l-1.04-2.77Z"/>
        <path class="cls-1" d="m229.21,64.41c1.08,0,1.76-.66,1.76-1.75s-.74-1.78-1.78-1.78h-2.26v3.53h2.27Zm-.08-3.99c.89,0,1.52-.62,1.52-1.57s-.6-1.55-1.54-1.55h-2.18v3.12h2.19Zm-2.68-3.57h2.69c1.17,0,2.03.78,2.03,2,0,.87-.42,1.46-1.04,1.75v.02c.79.22,1.36,1,1.36,2.03,0,1.34-.95,2.21-2.23,2.21h-2.81v-8.02Z"/>
        <polygon class="cls-1" points="233.81 56.85 238.2 56.85 238.2 57.3 234.3 57.3 234.3 60.59 237.5 60.59 237.5 61.05 234.3 61.05 234.3 64.41 238.41 64.41 238.41 64.87 233.81 64.87 233.81 56.85"/>
        <polygon class="cls-1" points="240.62 56.85 241.11 56.85 241.11 64.41 244.94 64.41 244.94 64.87 240.62 64.87 240.62 56.85"/>
        <path class="cls-1" d="m249.78,64.53c1.96,0,3.54-1.63,3.54-3.73s-1.58-3.62-3.54-3.62-3.54,1.57-3.54,3.62,1.58,3.73,3.54,3.73m0-7.82c2.23,0,4.06,1.79,4.06,4.09s-1.82,4.2-4.06,4.2-4.06-1.84-4.06-4.2,1.82-4.09,4.06-4.09"/>
        <path class="cls-1" d="m259.87,56.85h.48l2.34,5.04c.18.39.39.9.39.9h.02s.21-.52.39-.9l2.34-5.04h.48l.64,8.02h-.49l-.5-6.12c-.03-.39-.03-1.06-.03-1.06h-.02s-.23.68-.41,1.06l-2.15,4.57h-.51l-2.14-4.57c-.17-.38-.42-1.09-.42-1.09h-.02s0,.7-.03,1.09l-.49,6.12h-.49l.64-8.02Z"/>
        <path class="cls-1" d="m272.96,64.53c1.96,0,3.54-1.63,3.54-3.73s-1.58-3.62-3.54-3.62-3.54,1.57-3.54,3.62,1.58,3.73,3.54,3.73m0-7.82c2.23,0,4.06,1.79,4.06,4.09s-1.82,4.2-4.06,4.2-4.06-1.84-4.06-4.2,1.82-4.09,4.06-4.09"/>
        <path class="cls-1" d="m279.2,56.85h.46l4.57,6.29c.26.37.66,1.01.66,1.01h.02s-.06-.61-.06-1.01v-6.29h.49v8.02h-.46l-4.57-6.29c-.26-.37-.65-1.01-.65-1.01h-.02s.06.61.06,1.01v6.29h-.49v-8.02Z"/>
        <polygon class="cls-1" points="289.93 57.3 286.94 57.3 286.94 56.85 293.41 56.85 293.41 57.3 290.42 57.3 290.42 64.87 289.93 64.87 289.93 57.3"/>
        <polygon class="cls-1" points="295.01 56.85 299.39 56.85 299.39 57.3 295.5 57.3 295.5 60.59 298.7 60.59 298.7 61.05 295.5 61.05 295.5 64.41 299.61 64.41 299.61 64.87 295.01 64.87 295.01 56.85"/>
      </g>
    </g>
  </g>
</svg>